<svg width="82.902466" height="81.651855" viewBox="0 0 82.9025 81.6519" fill="none" xmlns="http://www.w3.org/2000/svg" xmlns:xlink="http://www.w3.org/1999/xlink">
	<desc>
			Created with Pixso.
	</desc>
	<defs>
		<clipPath id="clip4_75">
			<rect id="fi_15371027" rx="0.000000" width="81.585510" height="80.334824" transform="translate(0.658482 0.658482)" fill="white" fill-opacity="0"/>
		</clipPath>
	</defs>
	<rect id="fi_15371027" rx="0.000000" width="81.585510" height="80.334824" transform="translate(0.658482 0.658482)" fill="#FFFFFF" fill-opacity="0"/>
	<g clip-path="url(#clip4_75)">
		<path id="Vector" d="M68.17 32.65L52.66 29.1L57.25 9.66C57.85 7.09 60.46 5.48 63.08 6.08L69.12 7.46C71.73 8.06 73.36 10.63 72.75 13.21L68.17 32.65Z" fill="#FFFFFF" fill-opacity="1.000000" fill-rule="nonzero"/>
		<path id="Vector" d="M14.72 32.65L30.23 29.1L25.65 9.66C25.04 7.09 22.43 5.48 19.81 6.08L13.77 7.46C11.16 8.06 9.53 10.63 10.14 13.21L14.72 32.65Z" fill="#FFFFFF" fill-opacity="1.000000" fill-rule="nonzero"/>
		<path id="Vector" d="M47.73 4.94L35.17 4.94L36.42 -0.01L46.47 -0.01L47.73 4.94Z" fill="#FFFFFF" fill-opacity="1.000000" fill-rule="nonzero"/>
		<path id="Vector" d="M36.42 14.84L31.4 14.84L31.4 4.8C31.4 2.14 33.58 -0.01 36.27 -0.01L36.42 -0.01L36.42 14.84Z" fill="#FFFFFF" fill-opacity="1.000000" fill-rule="nonzero"/>
		<path id="Vector" d="M51.5 14.84L46.47 14.84L46.47 -0.01L46.62 -0.01C49.31 -0.01 51.5 2.14 51.5 4.8L51.5 14.84L51.5 14.84Z" fill="#FFFFFF" fill-opacity="1.000000" fill-rule="nonzero"/>
		<path id="Vector" d="M70.34 32.08L70.34 61.85L12.56 61.85L12.56 32.08C12.56 30.21 12.82 28.39 13.32 26.68L20.26 23.14L26.5 13.29C28.06 12.8 29.7 12.5 31.4 12.4L31.4 12.4L34.17 13.41L36.42 12.37L50.32 12.37C61.37 12.37 70.34 21.19 70.34 32.08Z" fill="#FEA301" fill-opacity="1.000000" fill-rule="nonzero"/>
		<path id="Vector" d="M40.07 12.37C36.84 13.96 29.06 18.92 29.06 29.63L29.06 61.85L12.56 61.85L12.56 32.08C12.56 21.19 21.52 12.37 32.57 12.37L40.07 12.37Z" fill="#FEA301" fill-opacity="1.000000" fill-rule="nonzero"/>
		<path id="Vector" d="M72.85 59.36L72.85 71.79C72.85 77.23 68.37 81.65 62.84 81.65L20.05 81.65C14.53 81.65 10.04 77.23 10.04 71.79L10.04 59.36C10.04 57.86 10.72 56.53 11.78 55.62C12.66 54.88 13.8 54.43 15.05 54.43L67.84 54.43C70.61 54.43 72.85 56.64 72.85 59.36Z" fill="#FEA301" fill-opacity="1.000000" fill-rule="nonzero"/>
		<path id="Vector" d="M29.2 81.65L20.05 81.65C14.52 81.65 10.04 77.23 10.04 71.79L10.04 59.36C10.04 57.86 10.72 56.53 11.78 55.62L24.33 61.85L24.33 74.42C24.33 77.55 26.07 80.34 29.2 81.65Z" fill="#FEA301" fill-opacity="1.000000" fill-rule="nonzero"/>
		<path id="Vector" d="M60.41 74.22C57.22 74.22 54.88 71.27 55.65 68.22L57.89 59.38L62.92 59.38L65.16 68.22C65.94 71.27 63.6 74.22 60.41 74.22Z" fill="#495560" fill-opacity="1.000000" fill-rule="nonzero"/>
		<path id="Vector" d="M76.62 59.39C76.62 60.07 76.34 60.68 75.88 61.13C75.43 61.58 74.8 61.85 74.11 61.85L24.33 61.85L19.62 61.06L19.62 52L29.06 49.48L66.56 49.48C72.11 49.48 76.62 53.92 76.62 59.39Z" fill="#FFFFFF" fill-opacity="1.000000" fill-rule="nonzero"/>
		<path id="Vector" d="M22.53 58.94C22.53 60.24 23.22 61.18 24.33 61.85L8.78 61.85C7.4 61.85 6.28 60.75 6.28 59.39C6.28 56.65 7.4 54.18 9.22 52.38C11.04 50.59 13.56 49.48 16.33 49.48L29.06 49.48C29.06 49.48 22.53 52.11 22.53 58.94Z" fill="#FFFFFF" fill-opacity="1.000000" fill-rule="nonzero"/>
		<path id="Vector" d="M46.55 27.21L36.34 27.21C35 27.21 33.91 26.14 33.91 24.82L33.91 22.18C33.91 20.86 35 19.79 36.34 19.79L46.55 19.79C47.9 19.79 48.98 20.86 48.98 22.18L48.98 24.82C48.98 26.14 47.9 27.21 46.55 27.21Z" fill="#68A2DF" fill-opacity="1.000000" fill-rule="nonzero"/>
		<path id="Vector" d="M32.94 39.83C32.94 41.98 30.71 43.73 27.97 43.73C25.22 43.73 22.99 41.98 22.99 39.83C22.99 37.67 25.22 35.93 27.97 35.93C30.71 35.93 32.94 37.67 32.94 39.83Z" fill="#FFFFFF" fill-opacity="1.000000" fill-rule="evenodd"/>
		<path id="Vector" d="M59.9 39.83C59.9 41.98 57.67 43.73 54.93 43.73C52.18 43.73 49.95 41.98 49.95 39.83C49.95 37.67 52.18 35.93 54.93 35.93C57.67 35.93 59.9 37.67 59.9 39.83Z" fill="#FFFFFF" fill-opacity="1.000000" fill-rule="evenodd"/>
		<path id="Vector" d="M46.27 35.13C45.58 35.13 45.02 35.68 45.02 36.36C45.02 36.99 44.5 37.51 43.86 37.51C43.22 37.51 42.7 36.99 42.7 36.36C42.7 35.68 42.14 35.13 41.45 35.13C40.76 35.13 40.2 35.68 40.2 36.36C40.2 36.99 39.67 37.51 39.03 37.51C38.4 37.51 37.87 36.99 37.87 36.36C37.87 35.68 37.31 35.13 36.62 35.13C35.93 35.13 35.37 35.68 35.37 36.36C35.37 38.35 37.02 39.97 39.04 39.97C39.96 39.97 40.8 39.63 41.45 39.08C42.09 39.63 42.94 39.97 43.86 39.97C45.88 39.97 47.52 38.35 47.52 36.36C47.52 35.68 46.96 35.13 46.27 35.13Z" fill="#495560" fill-opacity="1.000000" fill-rule="nonzero"/>
		<path id="Vector" d="M33.48 35.65C32.79 35.65 32.23 35.1 32.23 34.42C32.23 33.86 31.76 33.39 31.18 33.39C30.61 33.39 30.14 33.86 30.14 34.42C30.14 35.1 29.58 35.65 28.89 35.65C28.2 35.65 27.64 35.1 27.64 34.42C27.64 32.5 29.23 30.93 31.18 30.93C33.14 30.93 34.73 32.5 34.73 34.42C34.73 35.1 34.17 35.65 33.48 35.65Z" fill="#495560" fill-opacity="1.000000" fill-rule="nonzero"/>
		<path id="Vector" d="M54.01 35.65C53.32 35.65 52.76 35.1 52.76 34.42C52.76 33.86 52.29 33.39 51.71 33.39C51.13 33.39 50.66 33.86 50.66 34.42C50.66 35.1 50.1 35.65 49.41 35.65C48.72 35.65 48.16 35.1 48.16 34.42C48.16 32.5 49.75 30.93 51.71 30.93C53.67 30.93 55.26 32.5 55.26 34.42C55.26 35.1 54.7 35.65 54.01 35.65Z" fill="#495560" fill-opacity="1.000000" fill-rule="nonzero"/>
	</g>
</svg>
